<svg width="582" height="583" viewBox="0 0 582 583" fill="none" xmlns="http://www.w3.org/2000/svg">
<g clip-path="url(#clip0_9872_1498)">
<path d="M526.494 462.739C507.987 488.266 485.396 510.73 459.639 529.104C447.74 537.613 435.145 545.242 421.946 551.88C414.733 555.529 407.356 558.885 399.795 561.929C392.711 564.808 385.461 567.394 378.084 569.705C376.857 570.108 375.594 570.493 374.349 570.86C357.379 575.921 339.713 579.497 321.517 581.404C317.91 581.771 314.267 582.101 310.606 582.34C302.771 582.871 295.009 583.091 287.32 582.981C286.515 582.981 285.709 582.981 284.904 582.945C284.574 582.945 284.226 582.945 283.897 582.926C279.851 582.835 275.824 582.651 271.815 582.395C270.057 582.284 268.3 582.156 266.561 582.009C266.066 581.973 265.554 581.936 265.059 581.881C262.899 581.698 260.739 581.478 258.579 581.239C256.254 580.982 253.929 580.689 251.622 580.377C239.522 578.745 227.623 576.343 215.961 573.226C209.444 571.483 202.982 569.521 196.63 567.302C196.483 567.284 196.337 567.229 196.209 567.174C192.218 565.817 188.282 564.35 184.383 562.81C179.733 560.976 175.138 559.014 170.616 556.923C165.6 554.668 160.676 552.247 155.825 549.698C154.616 549.056 153.408 548.414 152.218 547.754C140.228 541.226 128.713 533.854 117.802 525.749C107.55 518.138 97.8114 509.886 88.6581 501.029C38.6631 452.58 5.72972 386.142 0.67713 311.14C-4.52191 234.194 20.5946 162.217 65.7933 106.91C68.942 103.041 72.2006 99.2447 75.569 95.5404C124.356 41.7002 193.225 5.95957 271.375 0.678244C431.74 -10.1778 570.503 111.238 581.322 271.86C586.119 342.754 565.158 409.431 526.494 462.739Z" fill="url(#paint0_linear_9872_1498)"/>
<path d="M365.983 216.736C371.274 216.443 376.583 216.15 381.764 215.013C387.493 213.766 393.004 211.492 398.844 210.96C417.571 209.236 434.212 225.392 453.012 224.658C453.763 224.622 454.587 224.585 455.209 225.025C455.777 225.429 456.033 226.144 456.216 226.822C458.651 236.046 452.482 245.894 444.097 250.442C435.713 254.989 425.717 255.301 416.216 254.696C406.239 254.054 396.262 252.495 386.834 249.158C382.148 247.507 377.535 245.399 372.592 244.793C368.766 244.317 364.903 244.775 361.077 245.215C350.606 246.444 340.135 247.672 329.663 248.901C329.132 248.956 332.336 236.431 332.794 235.331C334.734 230.765 337.498 226.639 340.903 223.045C347.823 215.764 356.446 217.286 366.038 216.755L365.983 216.736Z" fill="#FEC84B"/>
<path d="M431.978 232.874C423.685 241.071 411.036 243.143 399.429 242.281C387.823 241.419 376.491 238.045 364.885 237.091C362.578 236.908 340.299 234.818 344.382 229.903C345.553 228.491 356.72 230.398 358.752 230.49C363.53 230.728 368.29 230.948 373.068 231.15C392.693 231.975 412.335 232.562 431.978 232.874Z" fill="#F79009"/>
<path d="M321.517 581.405C317.911 581.771 314.268 582.102 310.606 582.34C302.771 582.872 295.009 583.092 287.32 582.982C287.961 572.419 291.439 562.242 297.371 553.549C300.648 548.763 304.657 544.417 309.325 540.713L310.295 539.943C326.643 526.978 348.556 523.787 367.777 531.324L368.436 531.599C369.333 531.947 370.23 532.351 371.109 532.754C372.812 533.543 374.441 534.405 376.034 535.34C386.633 541.575 394.889 550.927 399.795 561.93C392.711 564.809 385.461 567.395 378.084 569.705C376.857 570.109 375.594 570.494 374.349 570.86C357.379 575.922 339.714 579.498 321.517 581.405Z" fill="#D0D5DD"/>
<path d="M378.084 569.705C376.857 570.109 375.594 570.494 374.349 570.86C357.379 575.922 339.714 579.498 321.517 581.405C317.911 581.772 314.268 582.102 310.606 582.34C302.771 582.872 295.009 583.092 287.32 582.982C286.515 582.982 285.709 582.982 284.904 582.945C284.574 582.945 284.227 582.945 283.897 582.927C279.851 582.835 275.824 582.652 271.815 582.395L272.986 561.251L273.792 546.966L275.989 507.228L276.117 505.009L277.16 486.157L277.728 476.108L280.327 429.255L305.535 448.07L348.354 480.033L364.226 491.879C370.322 496.427 374.111 503.45 374.569 511.042L375.777 531.306L376.034 535.34L378.084 569.705Z" fill="#CDD9E8"/>
<path d="M324.977 172.707C322.945 156.349 317.892 139.515 324.116 123.799C329.315 110.688 342.24 98.6031 339.805 85.0147C337.242 70.7295 318.057 59.8367 318.991 45.4231C352.565 60.7536 367.668 96.3292 352.345 124.001C349.837 128.531 346.615 132.877 345.132 137.663C341.782 148.446 347.567 159.485 351.832 170.084C357.471 184.076 374.057 224.163 348.684 231.718C344.016 233.112 337.004 233.185 332.226 232.14C320.675 229.591 324.245 224.677 324.959 216.259C326.167 201.754 326.789 187.175 324.995 172.67L324.977 172.707Z" fill="#24221D"/>
<path d="M313.023 459.879L369.626 487.624L383.704 542.473L287.211 473.944L313.023 459.879Z" fill="#D0D5DD"/>
<path d="M238.076 569.045C287.815 561.105 319.357 542.675 368.345 531.195C362.835 526.941 350.881 489.458 344.949 468.296C339.073 447.134 339.439 419.279 350.148 400.116C351.613 397.475 353.517 394.761 356.464 394.083C359.54 393.349 362.707 395.256 365.343 397.017C379.787 406.717 394.249 416.492 408.692 426.192C411.402 428.026 414.276 429.86 417.571 430.3C420.427 430.667 423.301 429.86 426.084 429.053C438.843 425.312 451.53 421.553 464.308 417.812C466.724 417.078 469.214 416.345 470.989 414.584C472.454 413.117 473.259 411.137 473.918 409.138C475.749 403.765 476.701 398.19 476.701 392.524C476.701 391.79 476.701 390.983 476.628 390.177C476.628 389.15 476.555 388.123 476.408 387.096C476.115 383.502 475.383 379.889 474.285 376.368C473.992 375.415 473.699 374.461 473.333 373.581C466.431 355.279 450.669 341.764 438.935 325.975C429.177 312.9 422.056 297.9 418.175 282.038C415.539 271.53 414.001 260.142 406.734 252.202C402.56 247.654 396.83 244.775 391.338 241.988C372.555 232.654 345.791 211.492 324.299 215.764C303.686 219.945 279.705 228.253 264.877 243.693C255.705 253.174 249.92 265.295 244.337 277.197C235.605 295.865 227.019 314.826 222.625 334.943C219.769 347.944 218.671 361.239 218.012 374.553C214.863 439.872 221.673 505.706 238.113 569.045H238.076Z" fill="#FEC84B"/>
<path d="M374.349 570.86C357.379 575.922 339.714 579.497 321.517 581.405C317.911 581.771 314.268 582.101 310.606 582.34C302.771 582.872 295.009 583.092 287.32 582.982C286.515 582.982 285.709 582.982 284.904 582.945C284.574 582.945 284.227 582.945 283.897 582.927C279.851 582.835 275.824 582.652 271.815 582.395C270.057 582.285 268.3 582.156 266.561 582.01C266.067 581.973 265.554 581.936 265.06 581.881C262.899 581.698 260.739 581.478 258.579 581.24L259.989 564.68L262.552 534.386L265.096 504.514L265.316 501.946L276.117 505.009L286.149 507.869L308.007 514.068L368.345 531.195C368.382 531.324 368.4 531.47 368.436 531.599C371.494 544.967 373.379 558.097 374.349 570.86Z" fill="#FF3932"/>
<path d="M286.442 490.797L286.149 507.87V509.74L285.325 557.529L284.904 582.945C284.574 582.945 284.227 582.945 283.897 582.927C279.851 582.835 275.824 582.652 271.815 582.395C270.057 582.285 268.3 582.157 266.561 582.01C266.067 581.973 265.554 581.936 265.06 581.881C262.899 581.698 260.739 581.478 258.579 581.24C256.254 580.983 253.929 580.689 251.623 580.378C239.522 578.746 227.623 576.343 215.962 573.226C209.445 571.484 202.982 569.522 196.63 567.303C196.484 567.284 196.337 567.229 196.209 567.174C192.218 565.817 188.282 564.35 184.383 562.81C179.733 560.976 175.138 559.014 170.616 556.924C165.6 554.668 160.676 552.247 155.825 549.698C165.216 526.391 179.001 505.871 197.435 487.753C204.374 480.931 211.971 474.439 220.245 468.26C223.065 466.151 225.994 464.06 228.978 462.025L277.16 486.157L286.442 490.797Z" fill="#E4E7EC"/>
<path d="M206.149 442L303.485 484.984L307.293 534.258L193.042 486.652L206.149 442Z" fill="#D0D5DD"/>
<path d="M283.384 575.353L283.897 582.927C279.851 582.835 275.824 582.652 271.815 582.395C270.057 582.285 268.3 582.156 266.561 582.01C266.067 581.973 265.554 581.936 265.06 581.881C262.9 581.698 260.739 581.478 258.579 581.24C256.254 580.983 253.929 580.689 251.623 580.378C239.522 578.746 227.623 576.343 215.962 573.226C209.445 571.484 202.982 569.522 196.63 567.303C196.484 567.284 196.337 567.229 196.209 567.174C192.218 565.817 188.282 564.35 184.383 562.81C179.733 560.976 175.138 559.014 170.616 556.923C174.314 548.286 180.099 540.548 187.678 534.441L188.648 533.671C199.834 524.685 213.692 520.303 227.513 520.853C234.964 521.146 242.396 522.87 249.426 526.097C254.222 528.298 258.616 531.104 262.552 534.386C266.909 538.017 270.68 542.271 273.792 546.966C276.318 550.78 278.387 554.888 279.979 559.216C281.847 564.332 283.018 569.76 283.384 575.353Z" fill="#D0D5DD"/>
<path d="M441.626 371.454C442.505 379.027 455.118 379.394 459.017 385.996C460.262 388.05 461.214 390.323 462.752 392.249C463.044 392.542 463.264 392.909 463.63 393.129C463.923 393.423 464.216 393.716 464.582 393.936C464.655 394.083 464.802 394.156 464.948 394.229C466.34 395.256 468.024 395.843 469.726 395.843C470.532 395.99 471.044 395.916 471.63 395.77C472.948 395.476 473.973 394.963 474.779 394.229C474.925 394.156 475.072 394.083 475.145 393.936C475.438 393.716 475.584 393.423 475.804 393.129C476.17 392.469 476.463 391.735 476.536 390.929C476.536 390.708 476.61 390.415 476.61 390.195C476.61 389.168 476.536 388.141 476.39 387.114C476.39 386.894 476.317 386.601 476.243 386.381C475.291 382.566 472.875 378.734 470.806 376.827C470.513 376.607 470.147 376.24 469.854 376.093C466.486 373.232 462.514 371.399 458.633 369.693C455.777 368.373 452.683 367.126 449.534 367.053C446.312 366.979 441.388 369.18 441.608 371.454H441.626Z" fill="#24221D"/>
<path d="M463.191 390.928C463.264 391.735 463.557 392.469 463.923 393.129C464.143 393.422 464.289 393.716 464.582 393.936C464.655 394.083 464.802 394.156 464.948 394.229C465.754 394.963 466.779 395.476 468.097 395.77C468.683 395.916 469.195 395.99 469.708 395.843C471.685 395.843 473.369 395.256 474.761 394.229C474.907 394.156 475.053 394.083 475.127 393.936C475.493 393.716 475.786 393.422 476.079 393.129C476.298 392.982 476.518 392.762 476.664 392.542C476.664 391.809 476.664 391.002 476.591 390.195C476.591 389.168 476.518 388.141 476.372 387.114C476.079 383.52 475.346 379.907 474.248 376.386C473.955 375.433 473.662 374.479 473.296 373.599C472.124 374.333 471.026 375.066 470.001 375.946C469.561 376.24 469.195 376.607 468.902 376.827C466.852 378.734 464.436 382.566 463.465 386.381C463.026 387.921 462.88 389.535 463.173 390.928H463.191Z" fill="#24221D"/>
<path d="M250.177 159.082C203.477 131.171 131.367 138.085 88.3105 106.874C74.4342 96.8244 64.988 83.6028 58.1597 69.886C56.0911 70.051 54.0225 70.1977 51.9538 70.3628C50.1964 98.3831 77.052 123.029 107.624 138.213C138.196 153.397 185.902 156.478 216.456 171.662C249.316 188.001 263.577 217.378 279.998 244.757C280.913 246.279 281.902 247.892 283.769 248.736C285.471 249.506 287.577 249.469 289.535 249.286C323.219 246.059 302.57 223.008 294.295 207.879C284.245 189.486 270.954 171.478 250.195 159.063L250.177 159.082Z" fill="#24221D"/>
<path d="M244.227 249.341C239.101 251.615 233.957 253.889 228.538 255.319C222.552 256.896 216.255 257.428 210.506 259.739C192.035 267.166 184.127 290.4 166.076 298.78C165.344 299.11 164.557 299.477 164.191 300.174C163.843 300.834 163.953 301.623 164.099 302.338C166.241 312.204 176.804 318.494 186.873 318.732C196.96 318.97 206.516 314.441 215.193 309.27C224.291 303.842 232.932 297.552 240.218 289.868C243.842 286.035 247.174 281.836 251.531 278.884C254.9 276.591 258.762 275.143 262.588 273.731C273.041 269.843 283.494 265.937 293.947 262.049C294.478 261.848 285.435 251.578 284.465 250.772C280.437 247.416 275.861 244.848 270.918 243.106C260.886 239.585 253.508 245.178 244.227 249.305V249.341Z" fill="#FEC84B"/>
<path d="M189.82 296.378C201.573 300.101 214.479 295.956 225.005 289.538C235.531 283.12 244.575 274.482 255.046 267.991C257.133 266.689 277.105 253.981 270.918 251.322C269.124 250.551 259.531 257.722 257.664 258.804C253.289 261.334 248.895 263.828 244.483 266.322C226.396 276.573 208.181 286.586 189.82 296.36V296.378Z" fill="#F79009"/>
<path d="M468.134 402.83C466.852 404.792 465.443 406.644 464.051 408.496C462.623 410.33 461.177 412.145 459.694 413.906L458.742 415.043L457.534 413.851C454.678 411.027 452.042 408.038 449.644 404.847C448.436 403.252 447.283 401.619 446.221 399.914C445.159 398.209 444.134 396.448 443.292 394.559C445.012 395.715 446.55 397.035 448.051 398.392C449.534 399.749 450.944 401.179 452.299 402.646C455.008 405.58 457.498 408.698 459.768 412.017L457.607 411.962C459.273 410.367 460.994 408.826 462.733 407.286C464.509 405.782 466.266 404.26 468.152 402.866L468.134 402.83Z" fill="#BE1622"/>
<path d="M362.967 302.255C367.825 293.826 368.47 285.088 364.407 282.738C360.345 280.389 353.113 285.317 348.255 293.746C343.397 302.175 342.752 310.912 346.815 313.262C350.878 315.612 358.109 310.683 362.967 302.255Z" fill="#24221D"/>
<path d="M409.031 286.372C412.105 281.039 412.51 275.509 409.936 274.021C407.361 272.532 402.783 275.648 399.709 280.981C396.636 286.313 396.231 291.843 398.805 293.332C401.379 294.821 405.958 291.705 409.031 286.372Z" fill="#24221D"/>
<path d="M332.318 293.389C333.929 290.125 336.308 287.264 339.183 285.155C342.057 283.046 345.37 281.671 348.775 280.992C352.18 280.314 355.677 280.332 359.009 281.029C362.34 281.726 365.544 283.138 368.034 285.412C365.343 283.376 362.102 282.313 358.862 281.946C355.604 281.579 352.29 281.873 349.196 282.79C346.102 283.707 343.228 285.229 340.885 287.319C338.542 289.391 336.766 292.014 335.649 294.874L332.299 293.407L332.318 293.389Z" fill="#001848"/>
<path d="M419.036 273.034C417.937 271.512 416.509 270.21 414.752 269.605C412.994 268.963 410.999 269.073 409.113 269.605C405.306 270.687 401.882 273.052 398.715 275.528C401.699 272.814 404.903 270.173 408.839 268.724C410.779 268.009 413.013 267.698 415.155 268.284C417.296 268.853 419.127 270.265 420.5 271.915L419.054 273.034H419.036Z" fill="#001848"/>
</g>
<defs>
<linearGradient id="paint0_linear_9872_1498" x1="167.98" y1="27.2499" x2="414.696" y2="555.425" gradientUnits="userSpaceOnUse">
<stop stop-color="#038C8C"/>
<stop offset="1" stop-color="#5BDCC6"/>
</linearGradient>
<clipPath id="clip0_9872_1498">
<rect width="582" height="583" fill="white"/>
</clipPath>
</defs>
</svg>
