<svg width="3591" height="530" viewBox="0 0 3591 530" fill="none" xmlns="http://www.w3.org/2000/svg">
<g filter="url(#filter0_i_705_38)">
<g filter="url(#filter1_d_705_38)">
<path fill-rule="evenodd" clip-rule="evenodd" d="M1188.2 448.291C1197.97 450.235 1207.99 448.613 1217.02 443.627C1225.84 439.334 1233.41 431.903 1238.76 422.288C1244.11 412.674 1246.99 401.316 1247.04 389.676V143.984C1247.02 132.386 1244.18 121.058 1238.89 111.448C1233.59 101.838 1226.08 94.3826 1217.32 90.0334C1210.88 86.4495 1203.89 84.5857 1196.82 84.5655C1184.07 84.6347 1171.8 90.4765 1162.35 100.969L1098.16 173.875V121.018C1098.16 92.0146 1088.77 64.1988 1072.05 43.6901C1055.33 23.1813 1032.66 11.6597 1009.01 11.6597H741.574C717.93 11.6597 695.256 23.1813 678.537 43.6901C661.819 64.1988 652.427 92.0146 652.427 121.018V412.642C652.427 441.645 661.819 469.461 678.537 489.97C695.256 510.479 717.93 522 741.574 522H1009.01C1032.66 522 1055.33 510.479 1072.05 489.97C1088.77 469.461 1098.16 441.645 1098.16 412.642V359.785L1162.05 432.691C1169.33 440.922 1178.42 446.347 1188.2 448.291ZM765.563 145.045C762.249 145.045 759.563 147.732 759.563 151.045V376.818C759.563 380.131 762.249 382.818 765.563 382.818H973.193C976.507 382.818 979.193 380.131 979.193 376.818V151.045C979.193 147.732 976.507 145.045 973.193 145.045H765.563Z" fill="#0084BD"/>
</g>
<path fill-rule="evenodd" clip-rule="evenodd" d="M3157.39 477.539L3153.58 482.242C3150.76 485.092 3145.96 488.797 3139.19 493.357C3132.69 497.632 3124.79 502.05 3115.48 506.61C3106.44 510.885 3094.31 514.448 3079.06 517.298C3063.82 520.433 3047.45 522.001 3029.95 522.001C2992.97 522.001 2961.36 515.873 2935.11 503.618C2908.85 491.077 2888.25 472.979 2873.29 449.323C2858.61 425.382 2848.03 398.448 2841.53 368.522C2835.22 339.132 2831.97 305.291 2831.8 267H2980.41C2980.44 294.943 2982.13 319.378 2985.49 340.306C2989.16 361.396 2993.54 377.642 2998.62 389.043C3003.7 400.158 3009.77 409.136 3016.82 415.976C3023.88 422.817 3030.23 427.234 3035.88 429.229C3041.52 430.94 3047.59 431.795 3054.08 431.795C3068.48 431.795 3083.58 430.084 3099.39 426.664C3115.19 422.959 3128.18 417.401 3138.34 409.991L3157.39 477.539ZM3195.12 267V513.023H3335.26V304.822C3346.56 323.917 3359.54 351.991 3374.22 389.043C3381.87 407.859 3389.01 419.098 3395.63 429.523C3401.95 439.468 3407.8 448.671 3413.17 463.003C3424.46 492.075 3431.8 508.748 3435.19 513.023H3591C3585.07 504.188 3575.76 485.804 3563.06 457.873C3550.35 429.657 3538.07 401.583 3526.22 373.652C3514.36 345.721 3501.66 319.072 3488.11 293.706C3482.44 283.078 3477.23 274.176 3472.49 267H3195.12ZM3466.84 226H3195.12V11.9715H3335.26V205.21L3440.69 11.9715H3581.69L3466.84 226ZM2981.16 226H2832.74C2834.14 199.489 2837.07 175.743 2841.53 154.763C2848.03 123.981 2858.75 97.0476 2873.71 73.9616C2888.95 50.5906 2909.84 33.0624 2936.38 21.3769C2962.91 9.69138 2995.23 3.84863 3033.34 3.84863C3050.84 3.84863 3067.21 5.4162 3082.45 8.55134C3097.97 11.6865 3110.11 15.2491 3118.86 19.2393C3127.9 23.2295 3135.94 27.7896 3143 32.9199C3150.34 38.0501 3154.85 41.6127 3156.55 43.6078C3158.52 45.6029 3159.93 47.1705 3160.78 48.3105L3154.43 146.64H3090.07L3068.05 95.7651C3062.97 94.34 3058.74 93.6275 3055.35 93.6275C3036.44 93.6275 3021.9 98.0452 3011.74 106.881C3001.58 115.431 2993.82 132.389 2988.45 157.755C2984.73 175.154 2982.3 197.903 2981.16 226ZM2786.29 226V11.9715H2641.91V226H2786.29ZM2641.91 267V513.023H2786.29V267H2641.91ZM2600.49 267C2599.81 286.461 2598.09 305.196 2595.33 323.205C2591.94 347.146 2585.45 371.229 2575.85 395.455C2566.25 419.397 2554.12 440.06 2539.44 457.446C2524.76 474.831 2505.28 488.94 2481.01 499.77C2456.73 510.6 2429.07 516.016 2398.02 516.016C2387.86 516.016 2372.05 515.446 2350.6 514.306C2329.43 513.451 2307.56 513.023 2284.97 513.023H2217.65V267H2357.8V442.91H2384.9C2406.35 442.91 2422.72 429.514 2434.01 402.723C2445.58 375.932 2451.37 331.755 2451.37 270.193V267H2600.49ZM2600.42 226C2597.75 158.43 2582.22 106.183 2553.83 69.2589C2522.79 28.5022 2471.27 8.12381 2399.29 8.12381C2386.59 8.12381 2369.09 8.69383 2346.79 9.83388C2324.49 10.9739 2303.89 11.6865 2284.97 11.9715H2217.65V226H2357.8V85.9321H2389.55C2409.31 85.9321 2424.56 98.1877 2435.28 122.699C2445.93 147.026 2451.29 181.459 2451.37 226H2600.42ZM0 513.023H170.555L183.681 218.463L186.221 109.873L264.127 463.003H374.635L439.416 109.873L444.497 218.463L466.091 513.023H597.769L561.356 11.9715H384.374L351.348 180.414L335.259 265.062L318.323 179.986L281.063 11.9715H0V513.023ZM1307.74 265.062L1371.25 513.023H1552.14L1674.93 11.9715H1563.57L1525.47 184.689L1489.48 365.957L1451.37 184.689L1414.54 11.9715H1252.89L1307.74 265.062ZM1676.85 513.023V11.9715H1821.23V513.023H1676.85ZM1879.01 513.023H2179.21V406.143L2019.16 410.419V296.699L2133.48 305.249V205.21H2019.16V108.591L2164.39 112.866L2172.85 11.9715H1879.01V513.023ZM100.043 98.2006C104.958 98.243 108.976 94.255 109.017 89.2929C109.057 84.3309 105.105 80.274 100.19 80.2315C95.2739 80.1891 91.256 84.1771 91.2154 89.1392C91.1748 94.1012 95.1268 98.1581 100.043 98.2006ZM98.859 47.163C134.35 46.3915 154.963 79.9323 158.706 86.6132C159.22 87.5282 159.485 88.5634 159.477 89.6147C159.468 90.6661 159.185 91.6965 158.657 92.6025C153.481 101.542 134.196 130.486 101.377 131.041L99.8936 131.028C64.9453 130.726 45.2145 98.1512 41.5298 91.5906C41.0165 90.6756 40.7507 89.6404 40.7593 88.5891C40.768 87.5377 41.0506 86.5073 41.5788 85.6013C46.8145 76.6619 66.0399 47.718 98.859 47.163ZM88.4377 106.432C91.834 108.765 95.8391 110.029 99.9465 110.064C105.454 110.112 110.755 107.949 114.681 104.052C118.608 100.154 120.84 94.8409 120.885 89.2813C120.919 85.1353 119.734 81.0719 117.481 77.6049C115.227 74.1379 112.006 71.4231 108.224 69.8037C104.442 68.1843 100.27 67.7331 96.2347 68.5071C92.1997 69.2812 88.483 71.2457 85.5546 74.1523C82.6263 77.0589 80.6178 80.7769 79.7832 84.8363C78.9486 88.8957 79.3254 93.1142 80.8659 96.9582C82.4064 100.802 85.0414 104.099 88.4377 106.432Z" fill="#D0D0D0"/>
</g>
<defs>
<filter id="filter0_i_705_38" x="0" y="0" width="3591" height="522.001" filterUnits="userSpaceOnUse" color-interpolation-filters="sRGB">
<feFlood flood-opacity="0" result="BackgroundImageFix"/>
<feBlend mode="normal" in="SourceGraphic" in2="BackgroundImageFix" result="shape"/>
<feColorMatrix in="SourceAlpha" type="matrix" values="0 0 0 0 0 0 0 0 0 0 0 0 0 0 0 0 0 0 127 0" result="hardAlpha"/>
<feOffset dx="10" dy="3"/>
<feComposite in2="hardAlpha" operator="arithmetic" k2="-1" k3="1"/>
<feColorMatrix type="matrix" values="0 0 0 0 0 0 0 0 0 0 0 0 0 0 0 0 0 0 0.32 0"/>
<feBlend mode="normal" in2="shape" result="effect1_innerShadow_705_38"/>
</filter>
<filter id="filter1_d_705_38" x="648.427" y="11.6597" width="602.609" height="518.34" filterUnits="userSpaceOnUse" color-interpolation-filters="sRGB">
<feFlood flood-opacity="0" result="BackgroundImageFix"/>
<feColorMatrix in="SourceAlpha" type="matrix" values="0 0 0 0 0 0 0 0 0 0 0 0 0 0 0 0 0 0 127 0" result="hardAlpha"/>
<feOffset dy="4"/>
<feGaussianBlur stdDeviation="2"/>
<feComposite in2="hardAlpha" operator="out"/>
<feColorMatrix type="matrix" values="0 0 0 0 0 0 0 0 0 0 0 0 0 0 0 0 0 0 0.25 0"/>
<feBlend mode="normal" in2="BackgroundImageFix" result="effect1_dropShadow_705_38"/>
<feBlend mode="normal" in="SourceGraphic" in2="effect1_dropShadow_705_38" result="shape"/>
</filter>
</defs>
</svg>
