<svg width="548" height="100" viewBox="0 0 548 100" fill="none" xmlns="http://www.w3.org/2000/svg">
<g filter="url(#filter0_d_701_31)">
<path fill-rule="evenodd" clip-rule="evenodd" d="M534.878 82.816L535.526 82.024L532.286 70.648C530.558 71.896 528.35 72.832 525.662 73.456C522.974 74.032 520.406 74.32 517.958 74.32C516.854 74.32 515.822 74.176 514.862 73.888C513.902 73.552 512.822 72.808 511.622 71.656C510.422 70.504 509.39 68.992 508.526 67.12C507.662 65.2 506.918 62.464 506.294 58.912C505.718 55.36 505.43 51.208 505.43 46.456L505.43 46.2609L505.43 46H480.158V46.024C480.158 52.696 480.71 58.576 481.814 63.664C482.918 68.704 484.718 73.24 487.214 77.272C489.758 81.256 493.262 84.304 497.726 86.416C502.19 88.48 507.566 89.512 513.854 89.512C516.83 89.512 519.614 89.248 522.206 88.72C524.798 88.24 526.862 87.64 528.398 86.92C529.982 86.152 531.326 85.408 532.43 84.688C533.582 83.92 534.398 83.296 534.878 82.816ZM472.42 46V88H447.868V46H472.42ZM480.679 35H505.844C506.07 32.3443 506.388 30.067 506.798 28.168C507.71 23.896 509.03 21.04 510.758 19.6C512.486 18.112 514.958 17.368 518.174 17.368C518.75 17.368 519.47 17.488 520.334 17.728L524.078 26.296H535.022L536.102 9.73604C535.958 9.54405 535.718 9.28005 535.382 8.94404C535.094 8.60804 534.326 8.00804 533.078 7.14405C531.878 6.28004 530.51 5.51204 528.974 4.84005C527.486 4.16804 525.422 3.56804 522.782 3.04005C520.19 2.51205 517.406 2.24805 514.43 2.24805C507.95 2.24805 502.454 3.23205 497.942 5.20005C493.43 7.16804 489.878 10.12 487.286 14.056C484.742 17.944 482.918 22.48 481.814 27.664C481.329 29.9196 480.951 32.3649 480.679 35ZM472.42 35H447.868V3.61604H472.42V35ZM440.489 35C439.569 25.8508 437.037 18.6055 432.89 13.264C427.61 6.40005 418.85 2.96805 406.61 2.96805C404.45 2.96805 401.474 3.06405 397.682 3.25604C393.89 3.44804 390.386 3.56804 387.17 3.61604H375.722V35H399.554V16.072H404.954C408.314 16.072 410.906 18.136 412.73 22.264C414.146 25.4682 415.013 29.7136 415.329 35H440.489ZM399.554 46V76.192H404.162C407.81 76.192 410.594 73.936 412.514 69.424C414.482 64.912 415.466 57.472 415.466 47.104V46H440.843C440.742 49.4807 440.443 52.8247 439.946 56.032C439.37 60.064 438.266 64.12 436.634 68.2C435.002 72.232 432.938 75.712 430.442 78.64C427.946 81.568 424.634 83.944 420.506 85.768C416.378 87.592 411.674 88.504 406.394 88.504C404.666 88.504 401.978 88.408 398.33 88.216C394.73 88.072 391.01 88 387.17 88H375.722V46H399.554ZM27.6119 88H1V46.24V3.61604H46.4039L52.7399 31.912L55.6199 46.24L58.3559 31.984L63.9719 3.61604H94.0679L100.26 88H77.8679L74.1959 38.392L73.3319 20.104L62.3159 79.576H43.5239L30.2759 20.104L29.8439 38.392L27.6119 88ZM236.416 88L212.584 3.61604H239.152L245.416 32.704L251.896 63.232L258.016 32.704L264.496 3.61604H283.432L262.552 88H236.416ZM283.759 3.61604V88H308.311V3.61604H283.759ZM369.184 88H318.136V3.61604H368.104L366.664 20.608L341.968 19.888V36.16H361.408V53.008L341.968 51.568V70.72L369.184 70V88ZM14.9215 15.9758C15.7728 15.983 16.4686 15.2987 16.4758 14.4474C16.483 13.5962 15.7987 12.9003 14.9474 12.8931C14.0961 12.8859 13.4002 13.5702 13.3931 14.4215C13.3859 15.2728 14.0702 15.9687 14.9215 15.9758ZM14.7178 7.2195C20.8643 7.08621 24.4332 12.8402 25.0813 13.9864C25.1702 14.1433 25.2162 14.3209 25.2146 14.5013C25.2131 14.6817 25.1642 14.8585 25.0726 15.0139C24.176 16.5479 20.8355 21.5142 15.1517 21.6102L14.8949 21.6081C8.84243 21.5572 5.42624 15.9689 4.78828 14.8434C4.69941 14.6864 4.65341 14.5088 4.65493 14.3284C4.65645 14.1481 4.70542 13.9713 4.79692 13.8158C5.70387 12.282 9.03411 7.31558 14.7178 7.2195ZM12.9115 17.3885C13.4996 17.7886 14.1932 18.0054 14.9045 18.0114C15.8584 18.0194 16.7764 17.6482 17.4565 16.9794C18.1367 16.3106 18.5233 15.399 18.5313 14.4451C18.5373 13.7338 18.3322 13.0367 17.942 12.4419C17.5518 11.8471 16.9939 11.3814 16.3391 11.1037C15.6842 10.826 14.9616 10.7487 14.2628 10.8816C13.564 11.0145 12.9203 11.3516 12.413 11.8504C11.9058 12.3491 11.5579 12.9871 11.4133 13.6836C11.2686 14.3801 11.3338 15.1038 11.6005 15.7633C11.8671 16.4227 12.3234 16.9883 12.9115 17.3885Z" fill="#D8D8D8"/>
<path fill-rule="evenodd" clip-rule="evenodd" d="M203.516 77.2901C205.341 77.6253 207.212 77.3456 208.897 76.4857C210.544 75.7456 211.957 74.4642 212.956 72.8063C213.954 71.1484 214.492 69.19 214.5 67.1829V24.8171C214.496 22.8173 213.967 20.864 212.979 19.2069C211.991 17.5499 210.589 16.2642 208.953 15.5143C207.75 14.8963 206.446 14.5749 205.125 14.5714C202.746 14.5834 200.454 15.5907 198.69 17.4L186.708 29.9714V20.8571C186.708 15.8559 184.955 11.0595 181.834 7.52312C178.713 3.98672 174.48 2 170.067 2H120.142C115.728 2 111.495 3.98672 108.374 7.52312C105.253 11.0595 103.5 15.8559 103.5 20.8571V71.1429C103.5 76.1441 105.253 80.9405 108.374 84.4769C111.495 88.0133 115.728 90 120.142 90H170.067C174.48 90 178.713 88.0133 181.834 84.4769C184.955 80.9405 186.708 76.1441 186.708 71.1429V62.0286L198.635 74.6C199.994 76.0194 201.692 76.9548 203.516 77.2901ZM129.5 25C126.186 25 123.5 27.6863 123.5 31V60C123.5 63.3137 126.186 66 129.5 66H158.5C161.814 66 164.5 63.3137 164.5 60V31C164.5 27.6863 161.814 25 158.5 25H129.5Z" fill="#0084BD"/>
</g>
<defs>
<filter id="filter0_d_701_31" x="0" y="0" width="547.102" height="100" filterUnits="userSpaceOnUse" color-interpolation-filters="sRGB">
<feFlood flood-opacity="0" result="BackgroundImageFix"/>
<feColorMatrix in="SourceAlpha" type="matrix" values="0 0 0 0 0 0 0 0 0 0 0 0 0 0 0 0 0 0 127 0" result="hardAlpha"/>
<feOffset dx="5" dy="4"/>
<feGaussianBlur stdDeviation="3"/>
<feComposite in2="hardAlpha" operator="out"/>
<feColorMatrix type="matrix" values="0 0 0 0 0 0 0 0 0 0 0 0 0 0 0 0 0 0 0.37 0"/>
<feBlend mode="normal" in2="BackgroundImageFix" result="effect1_dropShadow_701_31"/>
<feBlend mode="normal" in="SourceGraphic" in2="effect1_dropShadow_701_31" result="shape"/>
</filter>
</defs>
</svg>
